<?xml version="1.0" standalone="no"?>
<!DOCTYPE svg PUBLIC "-//W3C//DTD SVG 20010904//EN"
 "http://www.w3.org/TR/2001/REC-SVG-20010904/DTD/svg10.dtd">
<svg version="1.0" xmlns="http://www.w3.org/2000/svg"
 width="16.000000pt" height="16.000000pt" viewBox="0 0 16.000000 16.000000"
 preserveAspectRatio="xMidYMid meet">
<metadata>
Created by potrace 1.11, written by Peter Selinger 2001-2013
</metadata>
<g transform="translate(0.000000,16.000000) scale(0.005333,-0.005333)"
fill="#000000" stroke="none">
<path d="M1993 2775 c-9 -19 -21 -35 -25 -35 -5 0 -7 -4 -4 -9 3 -4 -5 -13
-18 -19 -13 -6 -32 -24 -42 -41 -10 -17 -24 -31 -31 -31 -16 0 -55 -21 -65
-35 -4 -5 -8 -6 -8 -1 0 5 -10 0 -22 -12 -13 -11 -27 -21 -33 -21 -5 -1 -17
-7 -25 -14 -8 -7 -18 -14 -22 -15 -4 -2 -40 -18 -80 -37 -40 -18 -76 -31 -80
-29 -5 3 -8 0 -8 -5 0 -6 -3 -10 -7 -10 -5 1 -10 0 -13 -1 -3 -1 -14 -3 -25
-5 -11 -3 -33 -7 -50 -10 -46 -9 -95 -16 -145 -20 -25 -2 -48 -4 -52 -4 -4 -1
-3 -12 2 -25 6 -17 5 -27 -3 -33 -15 -11 -78 -33 -114 -39 -15 -3 -31 -8 -37
-12 -6 -3 -15 -7 -21 -7 -5 -1 -21 -4 -35 -8 -14 -3 -79 -8 -145 -11 -125 -5
-179 -12 -206 -27 -17 -9 -50 -15 -115 -24 -81 -10 -120 -17 -154 -28 -19 -6
-37 -12 -40 -12 -23 -4 -56 -20 -62 -29 -4 -6 -13 -11 -19 -11 -14 0 -70 -106
-62 -117 2 -5 0 -8 -6 -8 -9 0 -19 -22 -22 -45 0 -5 -5 -16 -11 -22 -6 -7 -7
-13 -2 -13 5 0 3 -4 -4 -8 -7 -5 -14 -19 -17 -31 -2 -12 -7 -32 -11 -43 -3
-11 -7 -30 -9 -41 -4 -23 -7 -38 -31 -152 -14 -64 -20 -105 -28 -190 -3 -45
50 -140 169 -303 17 -23 36 -41 43 -42 7 0 11 -4 8 -8 -3 -5 15 -28 39 -52 25
-24 45 -42 45 -38 0 3 24 -19 54 -48 30 -30 58 -54 62 -54 4 0 15 -6 23 -14
27 -24 143 -82 201 -101 30 -10 84 -19 121 -20 81 -2 120 -17 142 -54 17 -28
78 -86 150 -141 88 -67 489 -242 604 -264 10 -2 36 -9 58 -14 22 -6 60 -14 85
-17 25 -3 52 -8 60 -10 8 -2 31 -7 50 -10 75 -13 193 -47 246 -71 67 -31 91
-26 121 22 13 19 17 32 10 28 -9 -5 -9 -4 1 7 6 7 12 21 12 30 0 9 17 32 38
50 39 35 78 89 65 89 -5 0 -3 4 2 8 9 6 30 45 34 64 1 4 10 28 21 54 11 25 22
56 24 69 3 13 17 51 31 84 15 33 27 73 26 88 -1 15 -2 81 -2 146 -1 64 -4 117
-8 117 -4 0 -8 11 -9 26 -1 14 -6 33 -12 44 -11 21 -10 70 2 70 4 0 5 6 3 13
-2 6 -6 26 -9 42 -9 52 -16 85 -30 128 -7 23 -14 53 -14 66 -1 13 -8 31 -16
40 -9 10 -13 21 -10 24 4 4 -1 9 -10 13 -9 3 -16 15 -16 25 0 10 -5 19 -10 19
-6 0 -15 11 -20 25 -5 14 -15 24 -22 23 -8 -2 -12 40 -14 162 -1 91 -4 179 -8
195 -11 60 -24 165 -22 179 3 23 7 24 66 31 30 4 57 8 61 11 4 2 24 6 45 10
22 3 57 10 79 17 22 6 45 11 50 12 6 0 15 3 20 6 6 4 34 12 63 19 28 6 52 17
52 23 0 6 3 7 6 4 4 -3 16 -1 28 5 11 7 23 12 26 11 3 -1 11 5 17 12 11 12 1
20 -52 45 -35 17 -66 30 -68 28 -2 -2 -11 5 -21 15 -10 9 -26 17 -37 17 -11 0
-34 8 -52 17 -18 9 -38 16 -44 15 -7 -2 -13 2 -13 8 0 6 -4 8 -10 5 -5 -3 -10
-1 -10 6 0 7 -3 9 -6 6 -4 -3 -16 -1 -28 5 -11 7 -23 13 -26 13 -39 9 -60 19
-60 27 0 6 -7 8 -15 4 -8 -3 -15 -1 -15 4 0 5 -9 7 -20 5 -11 -2 -20 0 -20 6
0 5 -11 9 -25 9 -14 0 -25 5 -25 11 0 6 -6 9 -14 6 -7 -3 -20 2 -29 11 -23 25
-47 44 -47 37 0 -3 -14 8 -31 25 -18 16 -43 30 -55 30 -13 0 -36 12 -51 28
-16 15 -40 34 -55 41 -16 8 -28 18 -28 23 0 4 -7 8 -15 8 -8 0 -15 5 -15 10 0
22 -21 8 -37 -25z m-1613 -1453 c0 -4 -5 -14 -10 -22 -8 -13 -11 -13 -25 1
-22 22 -10 52 16 38 10 -5 19 -13 19 -17z m130 -36 c0 -20 -12 -27 -26 -15 -7
6 -10 17 -8 24 7 16 34 8 34 -9z m-71 -5 c9 -6 10 -14 4 -25 -8 -14 -12 -14
-27 -3 -11 8 -16 19 -12 25 9 14 16 15 35 3z m144 -35 c6 -15 -1 -26 -15 -26
-4 0 -8 9 -8 20 0 23 15 27 23 6z m-71 -48 c-10 -10 -16 -8 -30 5 -15 16 -15
19 -2 27 21 13 49 -15 32 -32z m-72 -3 c0 -19 -20 -29 -32 -17 -8 8 -7 16 2
26 14 17 30 12 30 -9z m234 -16 c-8 -14 -34 -11 -34 4 0 8 3 17 7 20 9 9 34
-13 27 -24z m-80 -16 c11 -26 -11 -40 -32 -20 -15 16 -15 19 -2 27 21 14 27
12 34 -7z m165 -17 c8 -10 9 -16 1 -21 -13 -8 -30 3 -30 21 0 18 14 18 29 0z
m-255 -20 c-3 -8 -12 -12 -20 -9 -21 8 -17 23 6 23 13 0 18 -5 14 -14z m179
-42 c-6 -16 -33 -11 -44 9 -14 23 21 41 37 19 6 -9 10 -22 7 -28z m-110 11 c7
-16 -8 -29 -23 -20 -15 9 -12 35 4 35 8 0 16 -7 19 -15z m269 0 c0 -5 -5 -11
-11 -13 -6 -2 -11 4 -11 13 0 9 5 15 11 13 6 -2 11 -8 11 -13z m-90 -30 c8
-12 -10 -35 -27 -35 -15 0 -24 19 -17 38 5 14 33 12 44 -3z m-105 -52 c-4 -3
-16 -2 -28 3 -21 10 -21 11 -3 28 17 18 18 18 28 -3 5 -12 6 -24 3 -28z m253
21 c0 -8 -7 -14 -15 -14 -8 0 -15 2 -15 4 0 2 -3 11 -6 19 -4 12 0 14 15 10
12 -3 21 -12 21 -19z m-74 -32 c-13 -13 -17 -13 -31 -2 -16 13 -15 15 1 27 13
10 21 10 31 1 12 -10 12 -14 -1 -26z m-101 -12 c3 -6 -1 -13 -10 -16 -19 -8
-30 0 -20 15 8 14 22 14 30 1z m901 -12 c4 -6 2 -14 -5 -16 -6 -2 -24 -14 -39
-26 -27 -23 -52 -24 -52 -2 0 11 65 55 82 56 4 0 10 -5 14 -12z m-827 -22 c9
-11 8 -15 -5 -20 -20 -8 -39 7 -30 23 10 15 21 14 35 -3z m875 -18 c-3 -11 -2
-18 3 -15 5 3 14 2 21 -2 17 -11 -16 -48 -51 -56 -34 -9 -37 15 -4 40 21 16
21 16 -5 1 -51 -30 -95 -10 -50 22 57 42 98 46 86 10z m-144 -40 c0 -7 -15
-25 -34 -40 -44 -35 -64 -19 -27 23 26 30 61 39 61 17z m36 -23 c4 -8 15 -15
25 -15 29 0 23 -25 -13 -52 -31 -23 -65 -28 -52 -7 3 5 -4 9 -15 9 -35 0 -35
22 0 51 39 33 47 35 55 14z m146 -25 c-13 -11 -30 -16 -37 -13 -22 8 -18 16
13 35 37 23 57 4 24 -22z m-72 -44 c0 -2 -7 -9 -15 -16 -12 -10 -15 -10 -15 4
0 9 7 16 15 16 8 0 15 -2 15 -4z m58 -13 c4 -10 15 -18 25 -18 9 0 17 -4 16
-10 0 -5 9 -12 21 -15 12 -3 22 -9 23 -14 3 -12 -70 -49 -82 -41 -13 7 -3 35
11 32 6 -1 13 5 15 13 4 13 3 13 -6 0 -6 -8 -11 -11 -11 -6 0 5 -8 2 -18 -7
-12 -11 -22 -13 -32 -6 -13 8 -12 12 8 28 35 30 26 36 -12 8 -25 -20 -36 -23
-45 -14 -9 9 -5 18 16 39 32 31 61 36 71 11z m-383 -54 c9 -26 -12 -51 -24
-30 -10 15 -3 51 9 51 5 0 12 -9 15 -21z m45 -18 c14 -27 3 -56 -16 -40 -15
12 -19 41 -7 52 9 10 11 9 23 -12z m463 -15 c3 -8 -5 -18 -19 -25 -53 -24 -83
-3 -31 23 40 19 44 19 50 2z m-418 -4 c6 -4 11 -17 11 -30 2 -34 -30 -24 -34
11 -3 27 4 33 23 19z m63 -55 c5 -45 -28 -30 -35 16 -2 13 2 17 14 15 11 -2
19 -14 21 -31z m58 -29 c3 -11 3 -22 0 -25 -9 -10 -36 18 -36 38 0 24 27 14
36 -13z m-91 -17 c3 -5 1 -12 -4 -15 -5 -3 -11 1 -15 9 -6 16 9 21 19 6z m149
-10 c13 -14 14 -21 5 -27 -7 -4 -18 1 -26 11 -26 36 -9 49 21 16z m366 -245
c0 -2 -7 -9 -15 -16 -12 -10 -15 -10 -15 4 0 9 7 16 15 16 8 0 15 -2 15 -4z"/>
</g>
</svg>
